<?xml version="1.0" encoding="utf-8"?>
<!-- Generator: Adobe Illustrator 25.3.1, SVG Export Plug-In . SVG Version: 6.00 Build 0)  -->
<svg version="1.1" id="Layer_1" xmlns="http://www.w3.org/2000/svg" xmlns:xlink="http://www.w3.org/1999/xlink" x="0px" y="0px"
	 viewBox="0 0 90 71.6" style="enable-background:new 0 0 90 71.6;" xml:space="preserve">
<style type="text/css">
	.st0{fill:#00263D;}
</style>
<path class="st0" d="M71.7,57.2c-0.9,0-1.7-0.3-2.4-1L57.6,44.5H35c-3.7,0-6.7-3-6.7-6.7v-30c0-3.7,3-6.7,6.7-6.7h43.3
	c3.7,0,6.7,3,6.7,6.7v30c0,3.7-3,6.7-6.7,6.7H75v9.3c0,1.4-0.8,2.6-2.1,3.1C72.5,57.1,72.1,57.2,71.7,57.2z M35,4.5
	c-1.8,0-3.3,1.5-3.3,3.3v30c0,1.8,1.5,3.3,3.3,3.3h24l12.6,12.6V41.2h6.7c1.8,0,3.3-1.5,3.3-3.3v-30c0-1.8-1.5-3.3-3.3-3.3H35z"/>
<path class="st0" d="M20,70.5c-0.4,0-0.9-0.1-1.3-0.3c-1.2-0.5-2.1-1.7-2.1-3.1v-9.3h-5c-3.7,0-6.7-3-6.7-6.7v-30
	c0-3.7,3-6.7,6.7-6.7H25v3.3H11.7c-1.8,0-3.3,1.5-3.3,3.3v30c0,1.8,1.5,3.3,3.3,3.3H20v12.6l12.6-12.6h14c1.8,0,3.3-1.5,3.3-3.3
	v-3.3h3.3v3.3c0,3.7-3,6.7-6.7,6.7H34L22.4,69.5C21.7,70.2,20.9,70.5,20,70.5z"/>
<path class="st0" d="M50,21.2h-3.3v3.3H50V21.2z"/>
<path class="st0" d="M58.3,21.2H55v3.3h3.3V21.2z"/>
<path class="st0" d="M66.7,21.2h-3.3v3.3h3.3V21.2z"/>
</svg>
